<svg width="153" height="31" viewBox="0 0 153 31" fill="none" xmlns="http://www.w3.org/2000/svg">
<path d="M0 23.409V2.142H8.67365C11.096 2.142 13.0495 2.754 14.4561 3.9015C15.8626 5.049 16.5659 6.8085 16.5659 9.18C16.5659 13.9995 13.9872 16.371 8.90807 16.371H5.62615V23.409H0ZM5.62615 6.6555V11.934H6.56384C7.11083 11.934 7.50153 11.934 7.8141 11.934C8.12666 11.934 8.43922 11.8575 8.90807 11.781C9.37691 11.7045 9.68948 11.5515 9.84576 11.3985C10.0802 11.2455 10.2365 10.9395 10.3927 10.6335C10.549 10.3275 10.6272 9.8685 10.6272 9.333C10.6272 8.7975 10.549 8.3385 10.3927 8.0325C10.2365 7.65 10.0802 7.4205 9.84576 7.2675C9.61134 7.1145 9.29877 6.9615 8.90807 6.885C8.51736 6.8085 8.12666 6.732 7.8141 6.732C7.50153 6.732 7.11083 6.732 6.56384 6.732H5.62615V6.6555Z" fill="black"/>
<path d="M35.0853 8.9505V23.409H29.8498V21.8025H29.7717C29.3029 22.491 28.6777 23.0265 27.8963 23.3325C27.1149 23.715 26.2554 23.868 25.3177 23.868C23.1297 23.868 21.4106 23.103 20.0041 21.573C18.5975 20.043 17.8943 18.207 17.8943 16.1415C17.8943 13.9995 18.5975 12.24 20.0041 10.71C21.4106 9.18 23.1297 8.4915 25.3177 8.4915C27.2712 8.4915 28.834 9.1035 29.928 10.404V9.027H35.0853V8.9505ZM29.0684 13.8465C28.4433 13.2345 27.6619 12.9285 26.6461 12.9285C25.6302 12.9285 24.7707 13.2345 24.2237 13.8465C23.5986 14.4585 23.286 15.2235 23.286 16.1415C23.286 17.0595 23.5986 17.8245 24.2237 18.4365C24.8488 19.0485 25.6302 19.3545 26.6461 19.3545C27.6619 19.3545 28.5215 19.0485 29.0684 18.4365C29.6936 17.8245 30.0061 17.0595 30.0061 16.1415C30.0061 15.3 29.6936 14.535 29.0684 13.8465Z" fill="black"/>
<path d="M43.7589 8.9505V10.7865H43.8371C44.931 9.2565 46.4939 8.415 48.5255 8.415C50.4009 8.415 51.8075 8.9505 52.7451 10.0215C53.6828 11.0925 54.0735 12.546 54.0735 14.4585V23.409H48.8381V16.371C48.8381 16.371 48.8381 16.218 48.8381 15.912C48.8381 15.6825 48.8381 15.453 48.8381 15.3765C48.8381 15.3 48.8381 15.147 48.8381 14.9175C48.8381 14.688 48.8381 14.535 48.76 14.382C48.76 14.3055 48.6818 14.076 48.6037 13.923C48.5255 13.6935 48.4474 13.5405 48.3693 13.464C48.2911 13.3875 48.213 13.2345 48.0567 13.0815C47.9004 12.9285 47.8223 12.852 47.666 12.7755C47.5097 12.699 47.3534 12.6225 47.119 12.6225C46.8846 12.546 46.6502 12.546 46.4157 12.546C44.6185 12.546 43.6808 13.6935 43.6808 15.912V23.409H38.4454V8.9505H43.7589Z" fill="black"/>
<path d="M68.6859 23.409V21.8025H68.6078C68.1389 22.491 67.5138 23.0265 66.7324 23.3325C65.951 23.715 65.0914 23.868 64.1537 23.868C61.9658 23.868 60.2467 23.103 58.8401 21.573C57.4336 20.043 56.7303 18.207 56.7303 16.1415C56.7303 13.9995 57.4336 12.24 58.8401 10.71C60.2467 9.18 61.9658 8.4915 64.1537 8.4915C66.1072 8.4915 67.6701 9.1035 68.764 10.404V0H73.9995V23.409H68.6859ZM67.9045 13.8465C67.2794 13.2345 66.4979 12.9285 65.404 12.9285C64.3881 12.9285 63.5286 13.2345 62.9816 13.8465C62.3565 14.4585 62.0439 15.2235 62.0439 16.1415C62.0439 17.0595 62.3565 17.8245 62.9816 18.4365C63.6067 19.0485 64.3881 19.3545 65.404 19.3545C66.4198 19.3545 67.2794 19.0485 67.9045 18.4365C68.5296 17.8245 68.8422 17.0595 68.8422 16.1415C68.8422 15.3 68.5296 14.535 67.9045 13.8465Z" fill="black"/>
<path d="M93.3003 8.9505V23.409H88.0649V21.8025H87.9867C87.5179 22.491 86.8927 23.0265 86.1113 23.3325C85.3299 23.715 84.4704 23.868 83.5327 23.868C81.3447 23.868 79.6256 23.103 78.2191 21.573C76.8126 20.043 76.1093 18.207 76.1093 16.1415C76.1093 13.9995 76.8126 12.24 78.2191 10.71C79.6256 9.18 81.3447 8.4915 83.5327 8.4915C85.4862 8.4915 87.049 9.1035 88.143 10.404V9.027H93.3003V8.9505ZM87.3616 13.8465C86.7365 13.2345 85.955 12.9285 84.9392 12.9285C83.9234 12.9285 83.0638 13.2345 82.4387 13.8465C81.8136 14.4585 81.501 15.2235 81.501 16.1415C81.501 17.0595 81.8136 17.8245 82.4387 18.4365C83.0638 19.0485 83.8452 19.3545 84.9392 19.3545C85.955 19.3545 86.8146 19.0485 87.3616 18.4365C87.9867 17.8245 88.2993 17.0595 88.2993 16.1415C88.2993 15.3 87.9867 14.535 87.3616 13.8465Z" fill="black"/>
<path d="M96.9729 23.409V2.142H105.568C107.991 2.142 109.944 2.754 111.351 3.9015C112.757 5.049 113.461 6.8085 113.461 9.18C113.461 13.9995 110.882 16.371 105.803 16.371H102.599V23.409H96.9729ZM102.599 6.6555V11.934H103.537C104.084 11.934 104.474 11.934 104.787 11.934C105.1 11.934 105.412 11.8575 105.881 11.781C106.35 11.7045 106.662 11.5515 106.819 11.3985C107.053 11.2455 107.209 10.9395 107.366 10.6335C107.522 10.3275 107.6 9.8685 107.6 9.333C107.6 8.7975 107.522 8.3385 107.366 8.0325C107.209 7.65 107.053 7.4205 106.819 7.2675C106.584 7.1145 106.272 6.9615 105.881 6.885C105.49 6.8085 105.1 6.732 104.787 6.732C104.474 6.732 104.084 6.732 103.537 6.732H102.599V6.6555Z" fill="black"/>
<path d="M131.98 8.9505V23.409H126.745V21.8025H126.666C126.198 22.491 125.573 23.0265 124.791 23.3325C124.01 23.715 123.15 23.868 122.212 23.868C120.103 23.868 118.305 23.103 116.899 21.573C115.492 20.043 114.789 18.207 114.789 16.1415C114.789 13.9995 115.492 12.24 116.899 10.71C118.305 9.18 120.025 8.4915 122.212 8.4915C124.166 8.4915 125.729 9.1035 126.823 10.404V9.027H131.98V8.9505ZM126.041 13.8465C125.416 13.2345 124.635 12.9285 123.541 12.9285C122.525 12.9285 121.665 13.2345 121.118 13.8465C120.493 14.4585 120.181 15.2235 120.181 16.1415C120.181 17.0595 120.493 17.8245 121.118 18.4365C121.744 19.0485 122.525 19.3545 123.541 19.3545C124.557 19.3545 125.416 19.0485 126.041 18.4365C126.666 17.8245 126.979 17.0595 126.979 16.1415C126.901 15.3 126.588 14.535 126.041 13.8465Z" fill="black"/>
<path d="M140.419 21.42L133.308 8.9505H139.325L143.232 16.371L147.061 8.9505H153L141.201 30.6H135.34L140.419 21.42Z" fill="black"/>
</svg>
