<svg width="12" height="14" viewBox="0 0 12 14" fill="none" xmlns="http://www.w3.org/2000/svg">
<path d="M1.1961 14C0.921589 14 0.681393 13.895 0.475511 13.685C0.269628 13.475 0.166687 13.23 0.166687 12.95V2.3975H1.1961V12.95H9.32845V14H1.1961ZM3.25492 11.9C2.98041 11.9 2.74022 11.795 2.53433 11.585C2.32845 11.375 2.22551 11.13 2.22551 10.85V1.05C2.22551 0.77 2.32845 0.525 2.53433 0.315C2.74022 0.105 2.98041 0 3.25492 0H10.8039C11.0785 0 11.3186 0.105 11.5245 0.315C11.7304 0.525 11.8334 0.77 11.8334 1.05V10.85C11.8334 11.13 11.7304 11.375 11.5245 11.585C11.3186 11.795 11.0785 11.9 10.8039 11.9H3.25492ZM3.25492 10.85H10.8039V1.05H3.25492V10.85ZM3.25492 10.85V1.05V10.85Z" fill="#CFCFCF"/>
</svg>
