<svg width="24" height="18" viewBox="0 0 24 18" fill="none" xmlns="http://www.w3.org/2000/svg">
<path d="M23.5737 17.3383H0.427318C0.191341 17.3383 0.000972255 17.1477 0.000972255 16.912V1.08848C0.000972255 0.852505 0.191539 0.662136 0.427318 0.662136H23.5737C23.8096 0.662136 24 0.852703 24 1.08848V16.9089C24 17.1449 23.8096 17.3383 23.5737 17.3383ZM0.853744 16.4856H23.1472L23.147 1.51498H0.853546L0.853744 16.4856Z" fill="#24DB82"/>
<path d="M12.0001 9.42618C11.9148 9.42618 11.8323 9.4006 11.7584 9.35222L0.185465 1.44099C-0.00787863 1.30733 -0.0590398 1.043 0.0746146 0.849675C0.208269 0.656331 0.472602 0.605169 0.665926 0.738824L12.0002 8.48253L23.3315 0.735778C23.5249 0.602124 23.792 0.653284 23.9228 0.846628C24.0565 1.03997 24.0053 1.30708 23.812 1.43794L12.2416 9.35273C12.1676 9.40091 12.0854 9.42618 12.0001 9.42618Z" fill="#24DB82"/>
</svg>
