<svg width="24" height="24" viewBox="0 0 24 24" fill="none" xmlns="http://www.w3.org/2000/svg">
<path d="M24 17.4063C24 16.7122 23.4781 16.1589 22.6352 15.9658L17.0922 14.6895C16.9644 14.6607 16.8312 14.6998 16.7399 14.7913L13.8926 17.6986C12.3398 16.8477 10.8862 15.7491 9.56822 14.4312C8.25022 13.1132 7.15154 11.6597 6.30084 10.1095L9.20554 7.25956C9.29945 7.16825 9.33871 7.03508 9.3074 6.90728L8.03354 1.36387C7.84036 0.520957 7.28714 -0.000976562 6.59294 -0.000976562H1.12302C0.72111 -0.000976562 0.381807 0.273135 0.298264 0.667102C-0.873596 6.19458 1.45954 12.6876 6.38402 17.6148C10.4685 21.6991 15.6282 24.0007 20.4221 24.0007C21.4111 24.0007 22.3846 23.9016 23.3294 23.7032C23.7235 23.6197 23.9975 23.2804 23.9975 22.8785L24 17.4063ZM23.1754 22.9679C17.8932 24.09 11.6636 21.8325 6.91397 17.0854C2.23743 12.4084 -0.072292 6.02511 1.03143 0.823925C1.04198 0.777058 1.07588 0.748352 1.12292 0.748352H6.59284C7.0705 0.748352 7.24794 1.29641 7.30275 1.53127L8.53203 6.86837L5.57491 9.77051C5.45749 9.88534 5.42878 10.0654 5.50712 10.2141C6.41007 11.9235 7.59765 13.5233 9.03806 14.9642C10.4787 16.4048 12.0758 17.5922 13.7881 18.4951C13.9342 18.5734 14.1143 18.5447 14.2317 18.4273L17.1287 15.4678L22.4658 16.697C22.7006 16.7519 23.2513 16.9293 23.2487 17.407V22.8769C23.2513 22.9237 23.2223 22.9574 23.1754 22.9679Z" fill="#24DB82"/>
</svg>
