<svg width="154" height="30" viewBox="0 0 154 30" fill="none" xmlns="http://www.w3.org/2000/svg">
<path d="M45.5815 7.77665H49.3435L51.2796 14.0831C51.5945 15.2369 51.8935 16.5171 52.1611 17.8922C52.4028 16.5993 52.7396 15.3261 53.1685 14.0831L55.1833 7.77665H58.8509L60.8185 14.0831C60.9917 14.6679 61.5898 16.8806 61.763 17.8606C61.9991 16.7542 62.4713 14.9998 62.7389 14.0831L64.6908 7.77665H68.5157L63.4472 22.4758H60.0787L58.0639 16.1062C57.4658 14.1621 57.1352 12.7712 57.025 12.0283C56.8676 12.708 56.6 13.7511 55.8602 16.1694L53.8454 22.4758H50.3195L45.5815 7.77665Z" fill="black"/>
<path d="M70.2944 2.62404C70.2913 2.18641 70.4175 1.75768 70.6571 1.39207C70.8967 1.02646 71.2388 0.740393 71.6403 0.570036C72.0417 0.39968 72.4845 0.352687 72.9126 0.435001C73.3407 0.517316 73.7348 0.72524 74.0452 1.03248C74.3556 1.33972 74.5682 1.73248 74.6563 2.16109C74.7444 2.5897 74.7039 3.03491 74.54 3.44043C74.3761 3.84595 74.0961 4.19355 73.7355 4.43929C73.3748 4.68503 72.9497 4.81787 72.5139 4.82101C72.2239 4.8252 71.936 4.77147 71.6669 4.66293C71.3978 4.5544 71.1529 4.39324 70.9464 4.18881C70.7399 3.98439 70.5759 3.74078 70.464 3.47215C70.352 3.20352 70.2944 2.91523 70.2944 2.62404ZM70.7037 7.77665H74.3241V22.4758H70.7037V7.77665Z" fill="black"/>
<path d="M87.2472 11.08H85.9093C83.2963 11.08 81.675 12.4709 81.675 15.3317V22.4758H78.0546V7.80826H81.4704L81.675 9.94201C82.2889 8.4879 83.6898 7.50795 85.6417 7.50795C86.1831 7.51202 86.7221 7.581 87.2472 7.71342V11.08Z" fill="black"/>
<path d="M88.3333 15.1262C88.3333 10.511 91.3398 7.31829 95.637 7.31829C99.9343 7.31829 102.799 10.2739 102.799 14.8575V15.9481L91.7806 15.9797C92.0482 18.5718 93.4019 19.8837 95.8102 19.8837C97.7935 19.8837 99.1 19.1092 99.5093 17.7025H102.862C102.232 20.9269 99.5722 22.8551 95.7472 22.8551C91.387 22.8551 88.3333 19.6782 88.3333 15.1262ZM91.875 13.6563H99.2102C99.2102 11.6332 97.825 10.3055 95.6528 10.3055C93.4806 10.3055 92.2213 11.4593 91.875 13.6563Z" fill="black"/>
<path d="M105.711 7.77665H109.048L109.284 10.0052C110.181 8.31404 112.102 7.31829 114.321 7.31829C118.445 7.31829 121.169 10.3371 121.169 14.9366C121.169 19.536 118.681 22.8551 114.321 22.8551C112.133 22.8551 110.244 21.9858 109.316 20.5001V29.288H105.711V7.77665ZM113.471 19.5834C116.021 19.5834 117.532 17.7341 117.532 15.1262C117.532 12.5183 116.021 10.6216 113.471 10.6216C110.921 10.6216 109.347 12.4709 109.347 15.1262C109.347 17.7816 110.984 19.5834 113.471 19.5834Z" fill="black"/>
<path d="M123.388 18.2715C123.388 15.5688 125.356 13.8776 128.819 13.6089L133.21 13.277V12.9451C133.21 10.9536 132.014 10.1475 130.172 10.1475C128.047 10.1475 126.867 11.0484 126.867 12.5973H123.781C123.781 9.40462 126.394 7.31829 130.361 7.31829C134.328 7.31829 136.736 9.46784 136.736 13.5457V22.4758H133.556L133.289 20.2946C132.675 21.812 130.692 22.8551 128.409 22.8551C125.293 22.8551 123.388 21.0375 123.388 18.2715ZM133.226 16.5171V15.7426L130.172 15.9797C127.921 16.1852 127.071 16.9281 127.071 18.1293C127.071 19.3305 127.953 20.1208 129.59 20.1208C131.809 20.1208 133.226 18.7773 133.226 16.5171Z" fill="black"/>
<path d="M138.594 26.2533H140.766C142.182 26.2533 143.064 25.9214 143.694 24.1986L144.103 23.0922L138.216 7.77665H142.025L145.803 18.477L149.769 7.77665H153.5L146.322 25.7476C145.236 28.4819 143.694 29.6041 141.285 29.6041C140.378 29.6127 139.474 29.5065 138.594 29.288V26.2533Z" fill="black"/>
<path d="M7.01667 2.65565L0.925009 6.98637C0.79289 7.08196 0.685403 7.20784 0.611483 7.35354C0.537563 7.49924 0.499346 7.66055 0.500008 7.82406V25.2102C0.499263 25.5021 0.579872 25.7884 0.732721 26.0368C0.88557 26.2851 1.10456 26.4856 1.36494 26.6155C1.62532 26.7454 1.9167 26.7996 2.20614 26.7719C2.49557 26.7442 2.77152 26.6358 3.00279 26.4588L18.0982 16.0746V26.0479C18.1015 26.3349 18.1826 26.6155 18.3327 26.8598C18.4828 27.104 18.6964 27.3026 18.9504 27.4342C19.2044 27.5658 19.4894 27.6254 19.7746 27.6067C20.0598 27.5881 20.3346 27.4917 20.5695 27.3281L40.2139 13.198C40.3501 13.1016 40.4613 12.9738 40.538 12.8252C40.6147 12.6767 40.6547 12.5118 40.6546 12.3445V3.49334C40.6504 3.30066 40.5939 3.11279 40.4913 2.94997C40.3886 2.78715 40.2436 2.65556 40.0719 2.56937C39.9002 2.48318 39.7084 2.44567 39.5171 2.46087C39.3257 2.47607 39.1422 2.54342 38.9861 2.65565L24.6778 13.2296V3.49334C24.6771 3.30094 24.6234 3.11249 24.5227 2.94882C24.4219 2.78515 24.2781 2.65264 24.107 2.56595C23.936 2.47925 23.7444 2.44174 23.5534 2.45757C23.3625 2.4734 23.1796 2.54196 23.025 2.65565L8.68519 12.5341V3.49334C8.68099 3.30066 8.6245 3.11279 8.52181 2.94997C8.41912 2.78715 8.27413 2.65556 8.10246 2.56937C7.93079 2.48318 7.73895 2.44567 7.54762 2.46087C7.35628 2.47607 7.17271 2.54342 7.01667 2.65565Z" fill="black"/>
</svg>
